<svg xmlns="http://www.w3.org/2000/svg" viewBox="0 0 128 128">
  <!-- Background circle -->
  <circle cx="64" cy="64" r="60" fill="#4A90E2"/>
  
  <!-- Chat bubble -->
  <path d="M30 40 H98 A10 10 0 0 1 108 50 V78 A10 10 0 0 1 98 88 H70 L64 98 L58 88 H30 A10 10 0 0 1 20 78 V50 A10 10 0 0 1 30 40 Z" fill="white"/>
  
  <!-- AI symbol (circuit board pattern) -->
  <path d="M45 55 H83 M45 65 H83 M45 75 H83" stroke="#4A90E2" stroke-width="4" stroke-linecap="round"/>
  <circle cx="55" cy="55" r="3" fill="#4A90E2"/>
  <circle cx="75" cy="65" r="3" fill="#4A90E2"/>
  <circle cx="65" cy="75" r="3" fill="#4A90E2"/>
</svg>