<svg xmlns="http://www.w3.org/2000/svg" viewBox="0 0 34 34">
  <!-- Background circle -->
  <circle cx="17" cy="17" r="16" fill="#4A90E2"/>
  
  <!-- Chat bubble -->
  <path d="M8 10 H26 A3 3 0 0 1 29 13 V21 A3 3 0 0 1 26 24 H19 L17 27 L15 24 H8 A3 3 0 0 1 5 21 V13 A3 3 0 0 1 8 10 Z" fill="white"/>
  
  <!-- AI symbol (simplified circuit board pattern) -->
  <path d="M11 14 H23 M11 17 H23 M11 20 H23" stroke="#4A90E2" stroke-width="1.5" stroke-linecap="round"/>
  <circle cx="14" cy="14" r="1" fill="#4A90E2"/>
  <circle cx="20" cy="17" r="1" fill="#4A90E2"/>
  <circle cx="17" cy="20" r="1" fill="#4A90E2"/>
</svg>